<?xml version="1.0" encoding="UTF-8" standalone="no" ?>
<!DOCTYPE svg PUBLIC "-//W3C//DTD SVG 1.1//EN" "http://www.w3.org/Graphics/SVG/1.1/DTD/svg11.dtd">
<svg xmlns="http://www.w3.org/2000/svg" xmlns:xlink="http://www.w3.org/1999/xlink" version="1.1" width="199.74455357889275" height="190.50000360544686" viewBox="31.999997783447725 31.99999879835478 199.74455357889275 190.50000360544686" xml:space="preserve">
<desc>Created with Fabric.js 5.3.0</desc>
<defs>
</defs>
<g transform="matrix(1.1903894789 0 0 1.1317673358 135.8722745729 130.7500012019)" id="hDHlCQT0ce9MgO3o6dsBB"  >
<path style="stroke: rgb(0,0,0); stroke-width: 0; stroke-dasharray: none; stroke-linecap: butt; stroke-dashoffset: 0; stroke-linejoin: miter; stroke-miterlimit: 4; fill: rgb(53,237,53); fill-rule: nonzero; opacity: 1;" vector-effect="non-scaling-stroke"  transform=" translate(-0.0000038422, 0)" d="M -80.53837 -51.13137 C -80.56701 -59.060559999999995 -77.59234000000001 -66.67532 -72.27177 -72.29278 C -66.9512 -77.91023999999999 -59.72279 -81.0679 -52.18403000000001 -81.0679 L 52.51710999999999 -81.0679 L 52.51710999999999 -81.0679 C 59.96730999999999 -81.0679 67.11081999999999 -77.94734 72.36889 -72.39586 C 77.62696 -66.84438 80.56669 -59.319069999999996 80.53837999999999 -51.483019999999996 L 80.22520999999999 35.21437 L 64.30761999999999 35.21437 L 51.13429999999998 35.21437 L 51.13429999999998 81.06790000000001 L -0.7327300000000179 35.21437000000001 L -52.61870000000002 35.21437000000001 L -52.61870000000002 35.21437000000001 C -67.88299000000002 35.21437000000001 -80.27338000000002 22.23162000000001 -80.33137000000002 6.176800000000011 z" stroke-linecap="round" />
</g>
<g transform="matrix(1.1903894789 0 0 1.1317673358 127.8722745729 123.7500000003)" id="gWnUiN5g6whfKW-TV4pkO"  >
<path style="stroke: rgb(0,0,0); stroke-width: 0; stroke-dasharray: none; stroke-linecap: butt; stroke-dashoffset: 0; stroke-linejoin: miter; stroke-miterlimit: 4; fill: rgb(0,0,0); fill-rule: nonzero; opacity: 1;" vector-effect="non-scaling-stroke"  transform=" translate(-0.0000038422, 0)" d="M -80.53837 -51.13137 C -80.56701 -59.060559999999995 -77.59234000000001 -66.67532 -72.27177 -72.29278 C -66.9512 -77.91023999999999 -59.72279 -81.0679 -52.18403000000001 -81.0679 L 52.51710999999999 -81.0679 L 52.51710999999999 -81.0679 C 59.96730999999999 -81.0679 67.11081999999999 -77.94734 72.36889 -72.39586 C 77.62696 -66.84438 80.56669 -59.319069999999996 80.53837999999999 -51.483019999999996 L 80.22520999999999 35.21437 L 64.30761999999999 35.21437 L 51.13429999999998 35.21437 L 51.13429999999998 81.06790000000001 L -0.7327300000000179 35.21437000000001 L -52.61870000000002 35.21437000000001 L -52.61870000000002 35.21437000000001 C -67.88299000000002 35.21437000000001 -80.27338000000002 22.23162000000001 -80.33137000000002 6.176800000000011 z" stroke-linecap="round" />
</g>
<g transform="matrix(0.9937499379 0 0 0.853260206 128 113.2500000003)" id="f8r4P73923YEThizgA4a1"  >
<path style="stroke: rgb(0,0,0); stroke-width: 0; stroke-dasharray: none; stroke-linecap: butt; stroke-dashoffset: 0; stroke-linejoin: miter; stroke-miterlimit: 4; fill: rgb(53,237,53); fill-rule: nonzero; opacity: 1;" vector-effect="non-scaling-stroke"  transform=" translate(0, 0.000005)" d="M -80.50315 -57.09779 C -80.50315 -67.79754 -73.05554000000001 -76.4714 -63.86845000000001 -76.4714 L 65.18872 -76.4714 L 65.18872 -76.4714 C 73.64665000000001 -76.4714 80.50315 -68.48597000000001 80.50315 -58.63544 L 80.50315 39.65411 L 64.40252000000001 39.65411 L 44.285280000000014 39.65411 L 44.285280000000014 76.47139 L 4.637960000000014 39.65411 L -64.77990999999997 39.65411 L -64.77990999999997 39.65411 C -73.46360999999997 39.65411 -80.50313999999997 31.455520000000003 -80.50313999999997 21.342040000000004 z" stroke-linecap="round" />
</g>
<g transform="matrix(0.508125 0 0 0.508125 99 101)" id="PFO4Ak3lJErr0IQvyYniI"  >
<path style="stroke: rgb(0,0,0); stroke-width: 0; stroke-dasharray: none; stroke-linecap: butt; stroke-dashoffset: 0; stroke-linejoin: miter; stroke-miterlimit: 4; fill: rgb(255,255,255); fill-rule: nonzero; opacity: 1;" vector-effect="non-scaling-stroke"  transform=" translate(0, 0)" d="M 0 -15.74416 C 8.69077 -15.74416 15.74416 -8.69078 15.74416 0 C 15.74416 8.69077 8.69078 15.74416 0 15.74416 C -8.69077 15.74416 -15.74416 8.69078 -15.74416 0 C -15.74416 -8.69077 -8.69078 -15.74416 0 -15.74416 z" stroke-linecap="round" />
</g>
<g transform="matrix(1 0 0 1 91.9999961 95.9999961)" id="365lFGtXiLfQitQhTBjsz"  >
<path style="stroke: rgb(0,0,0); stroke-width: 0; stroke-dasharray: none; stroke-linecap: butt; stroke-dashoffset: 0; stroke-linejoin: miter; stroke-miterlimit: 4; fill: rgb(0,0,0); fill-rule: nonzero; opacity: 1;" vector-effect="non-scaling-stroke"  transform=" translate(-24, -24)" d="M 24 0 C 37.248 0 48 10.752 48 24 C 48 37.248 37.248 48 24 48 C 10.752 48 0 37.248 0 24 C 0 10.752 10.752 0 24 0 z M 11 24 C 11 31.176000000000002 16.823999999999998 37 24 37 C 31.176000000000002 37 37 31.176000000000002 37 24 C 37 16.823999999999998 31.176000000000002 11 24 11 C 16.823999999999998 11 11 16.823999999999998 11 24 z" stroke-linecap="round" />
</g>
<g transform="matrix(0.7621875 0 0 0.7621875 166 100)" id="GlLeuYRaRGVL8kgsSZ3qp"  >
<path style="stroke: rgb(0,0,0); stroke-width: 0; stroke-dasharray: none; stroke-linecap: butt; stroke-dashoffset: 0; stroke-linejoin: miter; stroke-miterlimit: 4; fill: rgb(255,255,255); fill-rule: nonzero; opacity: 1;" vector-effect="non-scaling-stroke"  transform=" translate(0, 0)" d="M 0 -15.74416 C 8.69077 -15.74416 15.74416 -8.69078 15.74416 0 C 15.74416 8.69077 8.69078 15.74416 0 15.74416 C -8.69077 15.74416 -15.74416 8.69078 -15.74416 0 C -15.74416 -8.69077 -8.69078 -15.74416 0 -15.74416 z" stroke-linecap="round" />
</g>
<g transform="matrix(1 0 0 1 157.999995125 95.999995125)" id="A6A1Yv_jgjptyd9v97K-X"  >
<path style="stroke: rgb(0,0,0); stroke-width: 0; stroke-dasharray: none; stroke-linecap: butt; stroke-dashoffset: 0; stroke-linejoin: miter; stroke-miterlimit: 4; fill: rgb(0,0,0); fill-rule: nonzero; opacity: 1;" vector-effect="non-scaling-stroke"  transform=" translate(-30, -30)" d="M 30 0 C 46.56 0 60 13.44 60 30 C 60 46.56 46.56 60 30 60 C 13.440000000000001 60 0 46.56 0 30 C 0 13.440000000000001 13.44 0 30 0 z M 12 30 C 12 39.936 20.064 48 30 48 C 39.936 48 48 39.936 48 30 C 48 20.064 39.936 12 30 12 C 20.064 12 12 20.064 12 30 z" stroke-linecap="round" />
</g>
<g transform="matrix(0.508125 0 0 0.508125 62.0000013 62.0000013)" id="VOMX7V74q2_YvljWJ9_AE"  >
<path style="stroke: rgb(0,0,0); stroke-width: 0; stroke-dasharray: none; stroke-linecap: butt; stroke-dashoffset: 0; stroke-linejoin: miter; stroke-miterlimit: 4; fill: rgb(255,255,255); fill-rule: nonzero; opacity: 1;" vector-effect="non-scaling-stroke"  transform=" translate(0, 0)" d="M 0 -15.74416 C 8.69077 -15.74416 15.74416 -8.69078 15.74416 0 C 15.74416 8.69077 8.69078 15.74416 0 15.74416 C -8.69077 15.74416 -15.74416 8.69078 -15.74416 0 C -15.74416 -8.69077 -8.69078 -15.74416 0 -15.74416 z" stroke-linecap="round" />
</g>
<g transform="matrix(0.508125 0 0 0.508125 190.0000013 134.0000013)" id="78GXe6Rn2sHEbcxnupxew"  >
<path style="stroke: rgb(0,0,0); stroke-width: 0; stroke-dasharray: none; stroke-linecap: butt; stroke-dashoffset: 0; stroke-linejoin: miter; stroke-miterlimit: 4; fill: rgb(255,255,255); fill-rule: nonzero; opacity: 1;" vector-effect="non-scaling-stroke"  transform=" translate(0, 0)" d="M 0 -15.74416 C 8.69077 -15.74416 15.74416 -8.69078 15.74416 0 C 15.74416 8.69077 8.69078 15.74416 0 15.74416 C -8.69077 15.74416 -15.74416 8.69078 -15.74416 0 C -15.74416 -8.69077 -8.69078 -15.74416 0 -15.74416 z" stroke-linecap="round" />
</g>
</svg>